<svg width="18" height="19" viewBox="0 0 18 19" fill="none" xmlns="http://www.w3.org/2000/svg">
<g clip-path="url(#clip0_1_5535)">
<path d="M8.4375 10.225C7.19486 10.225 6.1875 9.21762 6.1875 7.97498C6.1875 6.73233 7.19486 5.72498 8.4375 5.72498C9.68014 5.72498 10.6875 6.73233 10.6875 7.97498C10.6875 9.21762 9.68014 10.225 8.4375 10.225Z" stroke="#020617" stroke-width="1.26" stroke-linecap="round" stroke-linejoin="round"/>
<path d="M15.75 5.16248H14.0625" stroke="#020617" stroke-width="1.26" stroke-linecap="round" stroke-linejoin="round"/>
<path d="M15.75 9.09998H14.0625" stroke="#020617" stroke-width="1.26" stroke-linecap="round" stroke-linejoin="round"/>
<path d="M15.75 13.0375H14.0625" stroke="#020617" stroke-width="1.26" stroke-linecap="round" stroke-linejoin="round"/>
<path d="M11.8125 11.9125C11.4195 11.3885 10.91 10.9633 10.3242 10.6704C9.73839 10.3775 9.09244 10.225 8.4375 10.225C7.78256 10.225 7.13661 10.3775 6.55082 10.6704C5.96502 10.9633 5.45546 11.3885 5.0625 11.9125" stroke="#020617" stroke-width="1.26" stroke-linecap="round" stroke-linejoin="round"/>
<path d="M2.8125 15.2875L2.8125 2.91248C2.8125 2.60182 3.06434 2.34998 3.375 2.34998L13.5 2.34998C13.8107 2.34998 14.0625 2.60182 14.0625 2.91248V15.2875C14.0625 15.5981 13.8107 15.85 13.5 15.85H3.375C3.06434 15.85 2.8125 15.5981 2.8125 15.2875Z" stroke="#020617" stroke-width="1.26" stroke-linecap="round" stroke-linejoin="round"/>
</g>
<defs>
<clipPath id="clip0_1_5535">
<rect width="18" height="18" fill="white" transform="matrix(-1 0 0 1 18 0.0999756)"/>
</clipPath>
</defs>
</svg>
